<svg width="476" height="1604" viewBox="0 0 476 1604" fill="none" xmlns="http://www.w3.org/2000/svg">
<path d="M341.596 764.993C348.84 704.792 332.402 645.655 325.946 586.518C319.49 527.382 324.622 459.934 366.915 414.442C409.207 368.95 477.221 357.242 538.579 361.084C599.937 364.925 659.507 381.328 721.298 381.678C789.281 381.335 855.907 360.7 921.404 340.718C986.9 320.736 1053.82 300.29 1121.85 302.626C1189.87 304.962 1259.47 331.242 1294.37 387.11C1333.82 449.893 1319.74 535.115 1290.16 606.227C1260.59 677.338 1217.86 745.238 1200.88 819.888C1183.89 894.538 1196 974.549 1196.15 1052.46C1196.3 1130.36 1183.34 1214.58 1127.66 1272.12C1090.78 1307.57 1044.03 1331.42 993.805 1340.4C943.878 1349.21 893.324 1352.66 843.051 1350.7C756.581 1352.43 670.503 1345.45 586.177 1329.87C500.962 1314.42 422.666 1276.11 359.897 1219.15C299.343 1160.26 262.614 1076.1 273.621 991.748C283.388 914.059 332.127 842.87 341.596 764.993Z" fill="#F2FAFF"/>
</svg>
