<svg width="187" height="781" viewBox="0 0 187 781" fill="none" xmlns="http://www.w3.org/2000/svg">
<path d="M-132.253 751.967C-169.175 726.104 -196.215 688.871 -222.202 652.369L-419.826 377.461C-445.604 341.448 -471.906 304.641 -484.723 262.353C-493.505 232.951 -495.6 201.958 -490.855 171.645C-486.11 141.331 -474.645 112.463 -457.298 87.1554C-439.484 62.1606 -416.303 41.4684 -389.452 26.5949C-362.601 11.7214 -332.762 3.04337 -302.119 1.19663C-231.332 -2.65166 -164.822 29.8515 -97.9262 52.7489C-37.1205 73.8503 27.5227 86.6023 83.2779 118.793C139.033 150.983 187.36 206.894 186.459 271.238C185.785 323.06 154.621 368.949 122.845 409.939C91.0697 450.93 56.7413 493.149 48.0057 544.248C42.1665 578.837 48.4118 614.629 50.5842 649.176C52.7566 683.722 48.4054 722.119 25.4031 748.764C15.6113 759.417 3.60612 767.798 -9.76998 773.318C-23.1461 778.838 -37.5689 781.364 -52.0263 780.718C-80.9879 779.107 -108.859 769.118 -132.253 751.967Z" fill="#F7F39E"/>
</svg>
